<svg id="visual" viewBox="0 0 1920 1080" width="1920" height="1080" xmlns="http://www.w3.org/2000/svg" xmlns:xlink="http://www.w3.org/1999/xlink" version="1.1"><rect x="0" y="0" width="1920" height="1080" fill="#ffffff"></rect><path d="M0 640L45.7 641.8C91.3 643.7 182.7 647.3 274.2 656.2C365.7 665 457.3 679 548.8 671.7C640.3 664.3 731.7 635.7 823 632.2C914.3 628.7 1005.7 650.3 1097 668C1188.3 685.7 1279.7 699.3 1371.2 681C1462.7 662.7 1554.3 612.3 1645.8 613.3C1737.3 614.3 1828.7 666.7 1874.3 692.8L1920 719L1920 1081L1874.3 1081C1828.7 1081 1737.3 1081 1645.8 1081C1554.3 1081 1462.7 1081 1371.2 1081C1279.7 1081 1188.3 1081 1097 1081C1005.7 1081 914.3 1081 823 1081C731.7 1081 640.3 1081 548.8 1081C457.3 1081 365.7 1081 274.2 1081C182.7 1081 91.3 1081 45.7 1081L0 1081Z" fill="#0091ff"></path><path d="M0 855L45.7 845.8C91.3 836.7 182.7 818.3 274.2 796C365.7 773.7 457.3 747.3 548.8 733.8C640.3 720.3 731.7 719.7 823 731.7C914.3 743.7 1005.7 768.3 1097 765C1188.3 761.7 1279.7 730.3 1371.2 729C1462.7 727.7 1554.3 756.3 1645.8 756.5C1737.3 756.7 1828.7 728.3 1874.3 714.2L1920 700L1920 1081L1874.3 1081C1828.7 1081 1737.3 1081 1645.8 1081C1554.3 1081 1462.7 1081 1371.2 1081C1279.7 1081 1188.3 1081 1097 1081C1005.7 1081 914.3 1081 823 1081C731.7 1081 640.3 1081 548.8 1081C457.3 1081 365.7 1081 274.2 1081C182.7 1081 91.3 1081 45.7 1081L0 1081Z" fill="#0065b0"></path><path d="M0 863L45.7 860.8C91.3 858.7 182.7 854.3 274.2 876.5C365.7 898.7 457.3 947.3 548.8 969.7C640.3 992 731.7 988 823 970.7C914.3 953.3 1005.7 922.7 1097 899C1188.3 875.3 1279.7 858.7 1371.2 872.7C1462.7 886.7 1554.3 931.3 1645.8 951.5C1737.3 971.7 1828.7 967.3 1874.3 965.2L1920 963L1920 1081L1874.3 1081C1828.7 1081 1737.3 1081 1645.8 1081C1554.3 1081 1462.7 1081 1371.2 1081C1279.7 1081 1188.3 1081 1097 1081C1005.7 1081 914.3 1081 823 1081C731.7 1081 640.3 1081 548.8 1081C457.3 1081 365.7 1081 274.2 1081C182.7 1081 91.3 1081 45.7 1081L0 1081Z" fill="#043c67"></path></svg>